<svg width="51" height="11" viewBox="0 0 51 11" fill="none" xmlns="http://www.w3.org/2000/svg">
<path d="M3.97343 2.36341C3.37553 2.36341 3.20266 2.62985 3.20266 3.21751V4.19238H4.79748L4.63763 5.76737H3.20328V10.5471H1.28937V5.76737H0V4.19238H1.28937V3.24428C1.28937 1.6556 1.92692 0.816431 3.70577 0.816431C4.07853 0.815553 4.45099 0.837799 4.82103 0.883041V2.36527L3.97343 2.36341Z" fill="white"/>
<path d="M4.92993 7.16879C4.92993 5.39334 5.767 4.05615 7.52106 4.05615C8.47771 4.05615 9.06198 4.55044 9.34141 5.16425V4.19186H11.1748V10.5466H9.34141V9.58544C9.07561 10.1999 8.47771 10.6805 7.52106 10.6805C5.767 10.6805 4.92993 9.34514 4.92993 7.56783V7.16879ZM6.84323 7.59646C6.84323 8.54395 7.18834 9.17146 8.07869 9.17146C8.86309 9.17146 9.26149 8.59749 9.26149 7.68984V7.05175C9.26149 6.14411 8.86309 5.57014 8.07869 5.57014C7.18834 5.57014 6.84323 6.19765 6.84323 7.14513V7.59646Z" fill="white"/>
<path d="M15.161 4.05859C15.9045 4.05859 16.609 4.2192 16.9944 4.48564L16.5694 5.84772C16.1707 5.65699 15.7352 5.55667 15.2936 5.55389C14.2571 5.55389 13.8066 6.15463 13.8066 7.18303V7.55654C13.8066 8.58495 14.2583 9.18568 15.2936 9.18568C15.7352 9.1829 16.1707 9.08259 16.5694 8.89185L16.9944 10.2533C16.609 10.5204 15.9052 10.681 15.161 10.681C12.915 10.681 11.8921 9.46582 11.8921 7.5167V7.22287C11.8921 5.27376 12.915 4.05859 15.161 4.05859Z" fill="white"/>
<path d="M17.2471 7.61188V7.0516C17.2471 5.24939 18.27 4.06348 20.3568 4.06348C22.3234 4.06348 23.1871 5.26495 23.1871 7.02732V8.04204H19.1597C19.2 8.90984 19.5854 9.29705 20.6468 9.29705C21.3649 9.29705 22.122 9.15014 22.6803 8.90984L23.0303 10.2265C22.5254 10.4942 21.4888 10.694 20.5724 10.694C18.1504 10.6934 17.2471 9.47945 17.2471 7.61188ZM19.1604 6.78392H21.4727V6.62393C21.4727 5.92981 21.1939 5.37887 20.3574 5.37887C19.4931 5.3795 19.1604 5.92732 19.1604 6.78143V6.78392Z" fill="white"/>
<path d="M30.2791 7.57036C30.2791 9.34581 29.429 10.683 27.6768 10.683C26.7201 10.683 26.0559 10.2024 25.7901 9.58797V10.5492H23.9834V1.00146L25.8967 0.827148V5.07278C26.1755 4.51251 26.787 4.05806 27.6774 4.05806C29.4315 4.05806 30.2797 5.39338 30.2797 7.1707L30.2791 7.57036ZM28.3658 7.12961C28.3658 6.23504 28.0206 5.56769 27.1037 5.56769C26.3193 5.56769 25.8942 6.12797 25.8942 7.03623V7.70358C25.8942 8.61123 26.3193 9.17212 27.1037 9.17212C28.0206 9.17212 28.3658 8.50478 28.3658 7.6102V7.12961Z" fill="white"/>
<path d="M30.9194 7.52978V7.2098C30.9194 5.38021 31.956 4.05859 34.0688 4.05859C36.1816 4.05859 37.2188 5.38021 37.2188 7.2098V7.52978C37.2188 9.35874 36.1822 10.681 34.0694 10.681C31.9566 10.681 30.9194 9.35874 30.9194 7.52978ZM35.3049 7.07596C35.3049 6.23493 34.9592 5.56759 34.0657 5.56759C33.1723 5.56759 32.8296 6.23493 32.8296 7.07596V7.66362C32.8296 8.50465 33.1754 9.17199 34.0657 9.17199C34.9561 9.17199 35.3049 8.50465 35.3049 7.66362V7.07596Z" fill="white"/>
<path d="M37.8552 7.52978V7.2098C37.8552 5.38021 38.8918 4.05859 41.0046 4.05859C43.1174 4.05859 44.154 5.38021 44.154 7.2098V7.52978C44.154 9.35874 43.1174 10.681 41.0046 10.681C38.8918 10.681 37.8552 9.35874 37.8552 7.52978ZM42.2407 7.07596C42.2407 6.23493 41.8949 5.56759 41.0046 5.56759C40.1142 5.56759 39.7691 6.23493 39.7691 7.07596V7.66362C39.7691 8.50465 40.1142 9.17199 41.0046 9.17199C41.8949 9.17199 42.2407 8.50465 42.2407 7.66362V7.07596Z" fill="white"/>
<path d="M46.7845 7.22299L48.6712 4.19253H50.704L48.7245 7.33006L50.784 10.5473H48.7511L46.7845 7.43465V10.5473H44.8706V1.00146L46.7845 0.827148V7.22299Z" fill="white"/>
</svg>
