<svg width="26" height="25" viewBox="0 0 26 25" fill="none" xmlns="http://www.w3.org/2000/svg">
<path fill-rule="evenodd" clip-rule="evenodd" d="M13.0239 0.540527C6.24933 0.540527 0.762207 6.02765 0.762207 12.8022C0.762207 18.2281 4.27212 22.8109 9.14616 24.4356C9.75924 24.5428 9.98915 24.175 9.98915 23.8531C9.98915 23.5619 9.97382 22.5963 9.97382 21.5694C6.89307 22.1365 6.09606 20.8183 5.85082 20.1286C5.71288 19.7761 5.11512 18.6879 4.59399 18.3967C4.16483 18.1667 3.55175 17.5996 4.57867 17.5843C5.54428 17.569 6.234 18.4733 6.46391 18.8411C7.56746 20.6957 9.33008 20.1746 10.0351 19.8527C10.1424 19.0557 10.4643 18.5193 10.8168 18.2127C8.08858 17.9062 5.23773 16.8486 5.23773 12.1585C5.23773 10.825 5.71288 9.72149 6.49456 8.86317C6.37194 8.55663 5.94278 7.2998 6.61718 5.61381C6.61718 5.61381 7.6441 5.29194 9.98915 6.87064C10.9701 6.59475 12.0123 6.45681 13.0546 6.45681C14.0968 6.45681 15.1391 6.59475 16.12 6.87064C18.4651 5.27662 19.492 5.61381 19.492 5.61381C20.1664 7.2998 19.7372 8.55663 19.6146 8.86317C20.3963 9.72149 20.8714 10.8097 20.8714 12.1585C20.8714 16.8639 18.0053 17.9062 15.277 18.2127C15.7215 18.5959 16.1047 19.3316 16.1047 20.4811C16.1047 22.1212 16.0894 23.4393 16.0894 23.8531C16.0894 24.175 16.3193 24.5582 16.9324 24.4356C19.3665 23.6138 21.4817 22.0494 22.9802 19.9625C24.4787 17.8756 25.285 15.3714 25.2856 12.8022C25.2856 6.02765 19.7985 0.540527 13.0239 0.540527Z" fill="white"/>
</svg>
