<svg width="43" height="15" viewBox="0 0 43 15" fill="none" xmlns="http://www.w3.org/2000/svg">
<path d="M5.2957 0.0927734H5.67807C7.00555 0.121768 8.31138 0.658174 9.24927 1.60776C8.90298 1.96294 8.54946 2.30363 8.21038 2.65882C7.68372 2.18041 7.04883 1.81072 6.35624 1.68024C5.33177 1.46278 4.22794 1.6585 3.36941 2.24564C2.43152 2.86179 1.79664 3.9056 1.65956 5.02191C1.50805 6.12371 1.81828 7.28351 2.53252 8.13886C3.2179 8.97246 4.26401 9.49437 5.3462 9.53061C6.35624 9.5886 7.40956 9.27691 8.14545 8.56653C8.72261 8.06637 8.98955 7.30525 9.07613 6.56588C7.87851 6.56588 6.68089 6.57313 5.48327 6.56588V5.07265H10.5263C10.786 6.67461 10.4108 8.47955 9.19877 9.62484C8.39074 10.4367 7.27249 10.9151 6.13258 11.0094C5.02876 11.1181 3.88886 10.9079 2.90768 10.3715C1.7317 9.74082 0.793811 8.67526 0.33208 7.42123C-0.100794 6.26869 -0.108008 4.96392 0.296007 3.80412C0.663949 2.74581 1.37098 1.81072 2.28001 1.15834C3.15297 0.513199 4.21351 0.158012 5.2957 0.0927734Z" fill="white"/>
<path d="M34.2268 0.46875H35.7707V10.82C35.2585 10.82 34.739 10.8272 34.2268 10.8127C34.234 7.36956 34.2268 3.91916 34.2268 0.46875Z" fill="white"/>
<path d="M13.9607 4.05795C14.913 3.87674 15.9447 4.0797 16.731 4.65235C17.4453 5.15976 17.9431 5.95712 18.0946 6.82697C18.2894 7.83454 18.0441 8.93635 17.3948 9.73371C16.695 10.6253 15.5479 11.1037 14.4296 11.0312C13.4051 10.9732 12.4095 10.4586 11.8035 9.61773C11.1181 8.68989 10.9522 7.41412 11.3273 6.32681C11.7025 5.15976 12.763 4.26817 13.9607 4.05795ZM14.1771 5.43521C13.7875 5.5367 13.4268 5.76141 13.1671 6.08035C12.4672 6.9212 12.5105 8.29121 13.2825 9.07408C13.7226 9.5235 14.3863 9.73371 14.9996 9.61049C15.5695 9.509 16.0673 9.12482 16.3415 8.61741C16.8176 7.75481 16.6805 6.56602 15.9519 5.89188C15.4829 5.45696 14.7975 5.27574 14.1771 5.43521Z" fill="white"/>
<path d="M21.6078 4.05702C22.6972 3.84681 23.8876 4.15126 24.7028 4.91962C26.0303 6.11566 26.1746 8.35552 25.0419 9.73278C24.3565 10.6026 23.2455 11.081 22.1489 11.0303C21.1028 11.0013 20.0711 10.4794 19.4506 9.6168C18.7508 8.66722 18.5993 7.36245 18.9961 6.25339C19.3929 5.12259 20.4318 4.25999 21.6078 4.05702ZM21.8242 5.43428C21.4347 5.53576 21.0739 5.76048 20.8142 6.07217C20.1216 6.89853 20.1505 8.24679 20.8936 9.03691C21.3336 9.50807 22.019 9.74003 22.6539 9.60956C23.2166 9.50082 23.7217 9.12389 23.9958 8.61648C24.4648 7.74663 24.3277 6.55784 23.5918 5.8837C23.1229 5.44878 22.4375 5.27481 21.8242 5.43428Z" fill="white"/>
<path d="M28.0936 4.47768C28.9233 3.95577 30.0271 3.81079 30.9217 4.26021C31.2031 4.38344 31.4339 4.59366 31.6576 4.80387C31.6648 4.60816 31.6576 4.40519 31.6648 4.20222C32.1482 4.20947 32.6315 4.20222 33.1221 4.20947V10.6029C33.1149 11.567 32.8696 12.5891 32.177 13.2922C31.4195 14.0678 30.258 14.307 29.2118 14.1476C28.0936 13.9808 27.1196 13.1617 26.6868 12.1251C27.1196 11.9149 27.5741 11.7482 28.0214 11.5525C28.274 12.1469 28.7862 12.6543 29.4283 12.7703C30.0704 12.8863 30.8135 12.7268 31.2319 12.1904C31.6792 11.6395 31.6792 10.8856 31.6576 10.2115C31.3257 10.5377 30.9433 10.8276 30.4816 10.9363C29.4788 11.219 28.375 10.8711 27.603 10.1897C26.8238 9.50833 26.3621 8.45726 26.4054 7.41344C26.427 6.23188 27.0908 5.09382 28.0936 4.47768ZM29.587 5.40552C29.1469 5.47801 28.7357 5.72447 28.4543 6.06516C27.7762 6.87703 27.7762 8.17456 28.4615 8.97192C28.8511 9.4431 29.4788 9.70405 30.0848 9.63881C30.6548 9.58082 31.1814 9.21838 31.4628 8.71822C31.9389 7.87011 31.8596 6.71755 31.2175 5.97818C30.8207 5.5215 30.1858 5.29679 29.587 5.40552Z" fill="white"/>
<path d="M37.6251 4.847C38.4909 4.03514 39.8256 3.75969 40.9366 4.18737C41.9899 4.58605 42.6609 5.59362 43 6.63019C41.4344 7.28258 39.8761 7.92772 38.3105 8.5801C38.5269 8.99328 38.8588 9.37022 39.3061 9.52244C39.9338 9.74715 40.6841 9.66741 41.2108 9.24699C41.42 9.08752 41.5859 8.8773 41.7446 8.67434C42.1414 8.94254 42.5382 9.20349 42.935 9.4717C42.3723 10.3198 41.4272 10.9142 40.4099 11.0084C39.2845 11.1462 38.0869 10.7112 37.3582 9.82689C36.1606 8.43513 36.276 6.10103 37.6251 4.847ZM38.3971 6.18802C38.1518 6.54321 38.0508 6.97813 38.058 7.40581C39.1041 6.97088 40.1502 6.53596 41.1963 6.09379C41.0232 5.68786 40.6047 5.4414 40.1791 5.37616C39.4937 5.25293 38.7795 5.62262 38.3971 6.18802Z" fill="white"/>
</svg>
