<svg width="23" height="24" viewBox="0 0 23 24" fill="none" xmlns="http://www.w3.org/2000/svg">
<circle cx="11.4907" cy="12.2051" r="11.4907" fill="#075FE4"/>
<path d="M6.81502 17.4143L5.77197 5.71436H17.2281L16.1838 17.4152L11.4973 18.7144L6.81502 17.4143Z" fill="white"/>
<path d="M7.90552 8.10596L8.29233 12.4454H13.266L13.0991 14.3066L11.4977 14.7396L9.89932 14.3072L9.79244 13.1122H8.35206L8.55803 15.4159L11.4973 16.2323L14.4404 15.4159L14.8349 11.0106H9.60477L9.47348 9.54108H14.9605H14.965L15.0935 8.10596H7.90552Z" fill="#075FE4"/>
<path d="M11.5013 8.10571H7.90735L8.29416 12.4451H11.5013V11.0104H9.6066L9.47531 9.54084H11.5013V8.10571Z" fill="#075FE4"/>
<path d="M11.501 14.7386L11.4991 14.7392L9.90078 14.3069L9.7939 13.1118H8.35352L8.55949 15.4156L11.4988 16.232L11.501 16.2313V14.7386Z" fill="#075FE4"/>
</svg>
