<svg width="25" height="25" viewBox="0 0 25 25" fill="none" xmlns="http://www.w3.org/2000/svg">
<path fill-rule="evenodd" clip-rule="evenodd" d="M0.552368 12.4999C0.552368 7.63755 0.552368 5.20639 1.71102 3.45529C2.22841 2.67335 2.89808 2.00368 3.68003 1.48629C5.43112 0.327637 7.86228 0.327637 12.7246 0.327637C17.5869 0.327637 20.0181 0.327637 21.7692 1.48629C22.5511 2.00368 23.2208 2.67335 23.7382 3.45529C24.8968 5.20639 24.8968 7.63755 24.8968 12.4999C24.8968 17.3622 24.8968 19.7933 23.7382 21.5444C23.2208 22.3264 22.5511 22.996 21.7692 23.5134C20.0181 24.6721 17.5869 24.6721 12.7246 24.6721C7.86228 24.6721 5.43112 24.6721 3.68003 23.5134C2.89808 22.996 2.22841 22.3264 1.71102 21.5444C0.552368 19.7933 0.552368 17.3622 0.552368 12.4999ZM19.0285 12.5012C19.0285 15.9816 16.2072 18.8029 12.7268 18.8029C9.24649 18.8029 6.42512 15.9816 6.42512 12.5012C6.42512 9.02089 9.24649 6.19952 12.7268 6.19952C16.2072 6.19952 19.0285 9.02089 19.0285 12.5012ZM12.7268 16.6709C15.0297 16.6709 16.8965 14.8041 16.8965 12.5012C16.8965 10.1984 15.0297 8.33156 12.7268 8.33156C10.424 8.33156 8.55716 10.1984 8.55716 12.5012C8.55716 14.8041 10.424 16.6709 12.7268 16.6709ZM19.2757 7.36352C20.0935 7.36352 20.7565 6.70057 20.7565 5.88278C20.7565 5.06499 20.0935 4.40204 19.2757 4.40204C18.4579 4.40204 17.7949 5.06499 17.7949 5.88278C17.7949 6.70057 18.4579 7.36352 19.2757 7.36352Z" fill="white"/>
</svg>
