<svg width="23" height="24" viewBox="0 0 23 24" fill="none" xmlns="http://www.w3.org/2000/svg">
<circle cx="11.4907" cy="12.335" r="11.4907" fill="#075FE4"/>
<path d="M5.00008 15.2467L6.50919 14.3334C6.80038 14.8496 7.06522 15.2864 7.70053 15.2864C8.30949 15.2864 8.69351 15.0482 8.69351 14.1216V7.82036H10.5467V14.1478C10.5467 16.0673 9.42156 16.941 7.77995 16.941C6.29742 16.941 5.43686 16.1732 5 15.2466L5.00008 15.2467ZM11.5533 15.0481L13.0623 14.1745C13.4596 14.8232 13.9759 15.2997 14.8892 15.2997C15.6571 15.2997 16.1468 14.9158 16.1468 14.3863C16.1468 13.7509 15.6437 13.5258 14.7965 13.1552L14.3333 12.9565C12.9962 12.3874 12.1093 11.6726 12.1093 10.1634C12.1093 8.77343 13.1683 7.71436 14.8231 7.71436C16.0013 7.71436 16.8485 8.1248 17.4574 9.19704L16.0144 10.1238C15.6966 9.55456 15.3525 9.32954 14.823 9.32954C14.2802 9.32954 13.936 9.67373 13.936 10.1238C13.936 10.6797 14.2802 10.9049 15.0745 11.2491L15.5377 11.4476C17.1131 12.1228 18 12.8111 18 14.3598C18 16.028 16.6895 16.9413 14.9289 16.9413C13.208 16.9413 12.096 16.1205 11.5533 15.0482" fill="white"/>
</svg>
