<svg width="26" height="25" viewBox="0 0 26 25" fill="none" xmlns="http://www.w3.org/2000/svg">
<path d="M0.970581 3.60046C0.970581 2.81979 1.24474 2.17576 1.79303 1.66836C2.34132 1.16093 3.05412 0.907227 3.93139 0.907227C4.79301 0.907227 5.49012 1.15702 6.02276 1.65665C6.57105 2.17187 6.84521 2.84321 6.84521 3.67071C6.84521 4.42013 6.5789 5.04464 6.04626 5.54427C5.49797 6.05949 4.77734 6.3171 3.8844 6.3171H3.8609C2.99928 6.3171 2.30217 6.05949 1.76953 5.54427C1.23689 5.02904 0.970581 4.38109 0.970581 3.60046ZM1.27606 24.0924V8.44827H6.49273V24.0924H1.27606ZM9.38305 24.0924H14.5997V15.357C14.5997 14.8105 14.6624 14.389 14.7877 14.0923C15.007 13.5615 15.3399 13.1126 15.7864 12.7457C16.2329 12.3788 16.7929 12.1954 17.4665 12.1954C19.2211 12.1954 20.0984 13.3741 20.0984 15.7317V24.0924H25.315V15.1228C25.315 12.8121 24.7667 11.0595 23.6701 9.86514C22.5735 8.67075 21.1245 8.07356 19.3229 8.07356C17.302 8.07356 15.7276 8.94008 14.5997 10.6731V10.7199H14.5762L14.5997 10.6731V8.44827H9.38305C9.41437 8.94788 9.43004 10.5014 9.43004 13.1087C9.43004 15.7161 9.41437 19.3773 9.38305 24.0924Z" fill="white"/>
</svg>
