<svg width="57" height="12" viewBox="0 0 57 12" fill="none" xmlns="http://www.w3.org/2000/svg">
<path d="M56.9999 5.58252V4.53282H55.6964V2.90093L55.6525 2.91444L54.4282 3.28905L54.404 3.29639V4.53288H52.4716V3.84404C52.4716 3.5233 52.5433 3.27785 52.6846 3.11416C52.825 2.95243 53.0257 2.87021 53.2818 2.87021C53.4659 2.87021 53.6565 2.91357 53.8483 2.99909L53.8964 3.02056V1.91509L53.8738 1.90677C53.6948 1.84245 53.4515 1.81006 53.1498 1.81006C52.7696 1.81006 52.4241 1.8928 52.1228 2.05678C51.8214 2.22099 51.5842 2.45541 51.4181 2.75346C51.2526 3.05117 51.1686 3.395 51.1686 3.77551V4.53282H50.2609V5.58252H51.1686V10.0047H52.4716V5.58252H54.404V8.39275C54.404 9.55014 54.95 10.1367 56.0266 10.1367C56.2035 10.1367 56.3898 10.1159 56.5799 10.0753C56.7734 10.0336 56.9053 9.99202 56.9829 9.94756L57 9.9374V8.878L56.947 8.91304C56.8763 8.96016 56.7882 8.99867 56.685 9.02731C56.5813 9.05647 56.4947 9.07108 56.4276 9.07108C56.1754 9.07108 55.9888 9.00312 55.873 8.86899C55.7559 8.73365 55.6965 8.49697 55.6965 8.1659V5.58252H56.9999ZM47.3511 9.07125C46.8781 9.07125 46.5052 8.91443 46.2425 8.60552C45.9781 8.29506 45.8441 7.85243 45.8441 7.29005C45.8441 6.70982 45.9781 6.2557 46.2426 5.93975C46.5055 5.62588 46.8748 5.46658 47.3404 5.46658C47.7922 5.46658 48.1519 5.61872 48.4095 5.91902C48.6684 6.22089 48.7999 6.67137 48.7999 7.25835C48.7999 7.85254 48.6763 8.30897 48.4326 8.6143C48.1906 8.91732 47.8268 9.07125 47.3511 9.07125ZM47.409 4.401C46.5067 4.401 45.79 4.66539 45.279 5.18683C44.7684 5.70833 44.5095 6.43002 44.5095 7.33202C44.5095 8.18876 44.7622 8.87788 45.2607 9.37992C45.7592 9.88214 46.4377 10.1365 47.277 10.1365C48.1517 10.1365 48.8541 9.86846 49.3648 9.33979C49.8755 8.81171 50.1343 8.09684 50.1343 7.21591C50.1343 6.34578 49.8915 5.65152 49.4124 5.15282C48.9331 4.6539 48.259 4.401 47.409 4.401ZM42.4086 4.401C41.7949 4.401 41.2872 4.55799 40.8993 4.86753C40.5091 5.17892 40.3112 5.58731 40.3112 6.0815C40.3112 6.33839 40.3539 6.56657 40.438 6.76011C40.5226 6.95429 40.6535 7.12526 40.8274 7.26874C41 7.41107 41.2664 7.56015 41.6194 7.71183C41.9162 7.83395 42.1375 7.93725 42.2781 8.01866C42.4155 8.09846 42.513 8.17866 42.5681 8.25678C42.6216 8.33322 42.6488 8.43785 42.6488 8.56695C42.6488 8.93458 42.3735 9.11346 41.807 9.11346C41.5969 9.11346 41.3572 9.06957 41.0946 8.98308C40.834 8.8979 40.5879 8.77315 40.3652 8.6132L40.3111 8.5744V9.82891L40.3309 9.83814C40.5153 9.92325 40.7477 9.99502 41.0217 10.0515C41.2952 10.108 41.5436 10.1368 41.7595 10.1368C42.4255 10.1368 42.9618 9.97903 43.3532 9.66764C43.747 9.35411 43.9466 8.93608 43.9466 8.4248C43.9466 8.05596 43.8392 7.73966 43.6274 7.48457C43.417 7.23156 43.052 6.99927 42.5428 6.79395C42.1371 6.63112 41.8772 6.49596 41.77 6.3922C41.6666 6.29196 41.6141 6.15021 41.6141 5.9707C41.6141 5.81157 41.6789 5.68408 41.8119 5.58085C41.9459 5.47709 42.1325 5.42431 42.3664 5.42431C42.5835 5.42431 42.8056 5.45861 43.0265 5.52582C43.2473 5.59303 43.4412 5.68304 43.603 5.79315L43.6563 5.82953V4.63952L43.6358 4.63074C43.4865 4.56671 43.2896 4.51192 43.0505 4.46746C42.8124 4.42329 42.5965 4.401 42.4086 4.401ZM36.9143 9.07125C36.4415 9.07125 36.0685 8.91443 35.8058 8.60552C35.5413 8.29506 35.4076 7.85254 35.4076 7.29005C35.4076 6.70982 35.5415 6.2557 35.8061 5.93975C36.0688 5.62588 36.438 5.46658 36.9039 5.46658C37.3555 5.46658 37.7152 5.61872 37.9729 5.91902C38.2318 6.22089 38.3632 6.67137 38.3632 7.25835C38.3632 7.85254 38.2396 8.30897 37.9959 8.6143C37.7539 8.91732 37.3902 9.07125 36.9143 9.07125ZM36.9724 4.401C36.0699 4.401 35.3532 4.66539 34.8425 5.18683C34.3318 5.70833 34.0727 6.43002 34.0727 7.33202C34.0727 8.18911 34.3256 8.87788 34.8242 9.37992C35.3227 9.88214 36.0011 10.1365 36.8404 10.1365C37.7149 10.1365 38.4175 9.86846 38.9283 9.33979C39.4389 8.81171 39.6977 8.09684 39.6977 7.21591C39.6977 6.34578 39.4549 5.65152 38.9757 5.15282C38.4963 4.6539 37.8222 4.401 36.9724 4.401ZM32.0948 5.48044V4.53282H30.8077V10.0046H32.0948V7.20557C32.0948 6.72963 32.2027 6.33862 32.4157 6.04328C32.6259 5.75147 32.906 5.60359 33.2481 5.60359C33.364 5.60359 33.4942 5.62271 33.6351 5.66053C33.7746 5.69811 33.8757 5.73894 33.9353 5.78189L33.9894 5.8211V4.52346L33.9685 4.51451C33.8486 4.46359 33.6791 4.43789 33.4645 4.43789C33.141 4.43789 32.8516 4.54182 32.6037 4.74645C32.386 4.92631 32.2288 5.17292 32.1085 5.48044H32.0948ZM28.5027 4.401C27.9122 4.401 27.3855 4.52762 26.9375 4.77723C26.4885 5.02741 26.1414 5.38459 25.9051 5.83877C25.67 6.29185 25.5506 6.82109 25.5506 7.4113C25.5506 7.9283 25.6663 8.40274 25.8952 8.82089C26.1241 9.23973 26.4481 9.5674 26.8583 9.79467C27.2679 10.0216 27.7413 10.1367 28.2655 10.1367C28.8772 10.1367 29.3994 10.0144 29.8181 9.77324L29.8351 9.76354V8.58433L29.781 8.62383C29.5913 8.762 29.3793 8.87228 29.1513 8.95173C28.9238 9.03112 28.7164 9.07125 28.5345 9.07125C28.0294 9.07125 27.624 8.91322 27.3297 8.60165C27.0348 8.28969 26.8852 7.85162 26.8852 7.30038C26.8852 6.74568 27.0412 6.29635 27.3485 5.96481C27.6549 5.63425 28.0611 5.46658 28.5557 5.46658C28.9788 5.46658 29.391 5.60983 29.7811 5.89275L29.8351 5.93196V4.68946L29.8176 4.67965C29.6708 4.59749 29.4707 4.52964 29.2222 4.4782C28.9747 4.42687 28.7326 4.401 28.5027 4.401ZM24.6641 4.53288H23.377V10.0046H24.6641V4.53288ZM24.0337 2.20188C23.8219 2.20188 23.6371 2.27399 23.4853 2.4169C23.3329 2.56021 23.2555 2.74064 23.2555 2.95359C23.2555 3.16318 23.3319 3.34033 23.4829 3.47982C23.6329 3.61892 23.8183 3.68942 24.0338 3.68942C24.2492 3.68942 24.4352 3.61892 24.587 3.48006C24.7398 3.34033 24.8173 3.16324 24.8173 2.95359C24.8173 2.74809 24.7419 2.5695 24.5933 2.42267C24.4449 2.27613 24.2565 2.20188 24.0337 2.20188ZM20.8222 4.12916V10.0046H22.1358V2.36938H20.3178L18.0069 8.0406L15.7644 2.36938H13.8723V10.0045H15.1067V4.12858H15.1491L17.5172 10.0046H18.4487L20.7799 4.12916H20.8222Z" fill="white"/>
<path d="M5.07222 5.88863H0V0.816406H5.07222V5.88863Z" fill="white"/>
<path d="M10.6727 5.88863H5.60059V0.816406H10.6727V5.88863Z" fill="white"/>
<path d="M5.07208 11.4911H0V6.41895H5.07208V11.4911Z" fill="white"/>
<path d="M10.6727 11.4911H5.60059V6.41895H10.6727V11.4911Z" fill="white"/>
</svg>
