<svg width="23" height="24" viewBox="0 0 23 24" fill="none" xmlns="http://www.w3.org/2000/svg">
<circle cx="11.4907" cy="12.335" r="11.4907" fill="#075FE4"/>
<path d="M11.5 11.0502C11.3244 11.0502 11.1506 11.0847 10.9884 11.1519C10.8262 11.2191 10.6788 11.3176 10.5547 11.4417C10.4305 11.5659 10.3321 11.7132 10.2649 11.8754C10.1977 12.0376 10.1631 12.2115 10.1631 12.387C10.1631 12.5626 10.1977 12.7364 10.2649 12.8986C10.3321 13.0608 10.4305 13.2082 10.5547 13.3323C10.6788 13.4565 10.8262 13.555 10.9884 13.6221C11.1506 13.6893 11.3244 13.7239 11.5 13.7239C11.6756 13.7239 11.8494 13.6893 12.0116 13.6221C12.1738 13.555 12.3212 13.4565 12.4453 13.3323C12.5695 13.2082 12.6679 13.0608 12.7351 12.8986C12.8023 12.7364 12.8369 12.5626 12.8369 12.387C12.8369 12.2115 12.8023 12.0376 12.7351 11.8754C12.6679 11.7132 12.5695 11.5659 12.4453 11.4417C12.3212 11.3176 12.1738 11.2191 12.0116 11.1519C11.8494 11.0847 11.6756 11.0502 11.5 11.0502ZM7.755 15.0464L7.46 14.9714C5.26125 14.4158 4 13.4727 4 12.3845C4 11.2964 5.26125 10.3533 7.46 9.79766L7.755 9.72328L7.83812 10.0158C8.06086 10.7831 8.34577 11.531 8.69 12.252L8.75313 12.3852L8.69 12.5183C8.34519 13.2391 8.06027 13.987 7.83812 14.7545L7.755 15.0464ZM7.32312 10.4808C5.65187 10.9502 4.62625 11.6683 4.62625 12.3845C4.62625 13.1002 5.65187 13.8183 7.32312 14.2883C7.52752 13.6382 7.77429 13.0023 8.06187 12.3845C7.77397 11.7669 7.52718 11.1309 7.32312 10.4808ZM15.245 15.0464L15.1619 14.7533C14.9394 13.986 14.6542 13.2383 14.3094 12.5177L14.2462 12.3845L14.3094 12.2514C14.6541 11.5305 14.9392 10.7826 15.1619 10.0152L15.245 9.72266L15.5406 9.79703C17.7388 10.3527 19 11.2958 19 12.3845C19 13.4733 17.7388 14.4158 15.5406 14.9714L15.245 15.0464ZM14.9381 12.3845C15.2381 13.0339 15.4862 13.672 15.6769 14.2883C17.3488 13.8183 18.3737 13.1002 18.3737 12.3845C18.3737 11.6683 17.3481 10.9508 15.6769 10.4808C15.4728 11.1309 15.226 11.7669 14.9381 12.3845ZM7.31875 10.4777L7.23563 10.1858C6.6175 8.00703 6.805 6.44578 7.75 5.90078C8.67688 5.36578 10.165 5.99766 11.7244 7.59828L11.9369 7.81641L11.7244 8.03453C11.1703 8.61054 10.664 9.23071 10.2106 9.88891L10.1263 10.0095L9.97938 10.022C9.18182 10.0849 8.39068 10.2124 7.61375 10.4033L7.31875 10.4777ZM8.50375 6.33391C8.33625 6.33391 8.18813 6.37016 8.06313 6.44203C7.44187 6.80016 7.33187 8.04516 7.76 9.72516C8.42602 9.57699 9.101 9.47239 9.78062 9.41203C10.1728 8.85446 10.6012 8.32331 11.0631 7.82203C10.0881 6.87266 9.165 6.33391 8.50375 6.33391ZM14.4969 19.0602C14.4963 19.0602 14.4963 19.0602 14.4969 19.0602C13.6062 19.0602 12.4625 18.3895 11.2756 17.1708L11.0631 16.9527L11.2756 16.7345C11.8296 16.1583 12.3356 15.538 12.7887 14.8795L12.8731 14.7589L13.0194 14.7464C13.8173 14.6839 14.6089 14.5566 15.3863 14.3658L15.6813 14.2914L15.765 14.5839C16.3819 16.7614 16.195 18.3233 15.25 18.8677C15.0205 18.9974 14.7605 19.0639 14.4969 19.0602ZM11.9369 16.947C12.9119 17.8964 13.835 18.4352 14.4963 18.4352H14.4969C14.6637 18.4352 14.8125 18.3989 14.9369 18.327C15.5581 17.9689 15.6687 16.7233 15.24 15.0433C14.5738 15.1917 13.8986 15.2963 13.2188 15.3564C12.8271 15.9144 12.3989 16.4457 11.9369 16.947ZM15.6813 10.4777L15.3863 10.4033C14.609 10.2119 13.8174 10.0843 13.0194 10.022L12.8731 10.0095L12.7887 9.88891C12.3359 9.23051 11.8298 8.61031 11.2756 8.03453L11.0631 7.81641L11.2756 7.59828C12.8344 5.99828 14.3219 5.36641 15.25 5.90078C16.195 6.44578 16.3825 8.00703 15.765 10.1852L15.6813 10.4777ZM13.2188 9.41203C13.9325 9.47703 14.6106 9.58266 15.24 9.72516C15.6687 8.04516 15.5581 6.80016 14.9369 6.44203C14.3194 6.08516 13.1588 6.63203 11.9369 7.82203C12.3986 8.32333 12.8268 8.85448 13.2188 9.41203ZM8.50375 19.0602C8.23987 19.064 7.97973 18.9976 7.75 18.8677C6.805 18.3233 6.6175 16.762 7.23563 14.5839L7.31813 14.2914L7.61313 14.3658C8.335 14.5477 9.13125 14.6758 9.97875 14.7464L10.1256 14.7589L10.2094 14.8795C10.6628 15.5379 11.1691 16.1582 11.7231 16.7345L11.9356 16.9527L11.7231 17.1708C10.5369 18.3895 9.39313 19.0602 8.50375 19.0602ZM7.76 15.0433C7.33125 16.7233 7.44187 17.9689 8.06313 18.327C8.68 18.6789 9.84 18.1364 11.0631 16.947C10.6014 16.4454 10.173 15.914 9.78062 15.3564C9.10096 15.2963 8.42597 15.1917 7.76 15.0433ZM11.5 15.4358C10.9856 15.4358 10.4569 15.4133 9.9275 15.3695L9.78062 15.357L9.69625 15.2364C9.39682 14.8062 9.11533 14.3637 8.8525 13.9102C8.59045 13.4563 8.34733 12.9917 8.12375 12.5177L8.06125 12.3845L8.12375 12.2514C8.34729 11.7774 8.59042 11.3128 8.8525 10.8589C9.11125 10.4114 9.39563 9.96516 9.69625 9.53266L9.78062 9.41203L9.9275 9.39953C10.9742 9.31079 12.0265 9.31079 13.0731 9.39953L13.2194 9.41203L13.3031 9.53266C13.9026 10.3933 14.4288 11.3028 14.8763 12.2514L14.9394 12.3845L14.8763 12.5177C14.4299 13.4669 13.9036 14.3764 13.3031 15.2364L13.2194 15.357L13.0731 15.3695C12.5437 15.4133 12.0144 15.4358 11.5 15.4358ZM10.1269 14.7583C11.0519 14.8277 11.9481 14.8277 12.8737 14.7583C13.3905 14.0028 13.8493 13.2093 14.2462 12.3845C13.85 11.5593 13.391 10.7657 12.8731 10.0108C11.959 9.94141 11.041 9.94141 10.1269 10.0108C9.6088 10.7655 9.14973 11.5591 8.75375 12.3845C9.1511 13.2092 9.61011 14.0027 10.1269 14.7583Z" fill="white"/>
</svg>
