<svg width="26" height="21" viewBox="0 0 26 21" fill="none" xmlns="http://www.w3.org/2000/svg">
<path d="M17.2597 0.457097V0.452637H18.421L18.8454 0.537388C19.1283 0.59241 19.3851 0.664516 19.6159 0.753728C19.8467 0.842941 20.07 0.947029 20.2859 1.06597C20.5018 1.18491 20.6976 1.30611 20.8733 1.42951C21.0475 1.55144 21.2039 1.6808 21.3423 1.81759C21.4793 1.95587 21.693 1.99155 21.9833 1.92464C22.2736 1.85773 22.5863 1.76479 22.9213 1.64585C23.2563 1.52691 23.5876 1.39309 23.9152 1.2444C24.2428 1.0957 24.4423 1.00129 24.5138 0.961147C24.5837 0.91953 24.621 0.897227 24.6254 0.894238L24.6299 0.887547L24.6522 0.876395L24.6745 0.865244L24.6969 0.854092L24.7192 0.842941L24.7237 0.83625L24.7304 0.831789L24.7371 0.827329L24.7415 0.820638L24.7639 0.813947L24.7862 0.809486L24.7818 0.842941L24.775 0.876395L24.7639 0.90985L24.7527 0.943305L24.7415 0.965608L24.7304 0.987911L24.7192 1.02137C24.7118 1.04367 24.7043 1.0734 24.6969 1.11058C24.6894 1.14776 24.6187 1.29643 24.4847 1.55664C24.3507 1.81685 24.1832 2.08076 23.9822 2.3484C23.7812 2.61604 23.601 2.81824 23.4417 2.95504C23.2809 3.09332 23.1745 3.18996 23.1223 3.24498C23.0702 3.30148 23.007 3.35351 22.9325 3.40111L22.8208 3.47471L22.7985 3.48586L22.7762 3.49701L22.7717 3.5037L22.765 3.50816L22.7583 3.51262L22.7538 3.51931L22.7315 3.53046L22.7092 3.54162L22.7047 3.54831L22.698 3.55277L22.6913 3.55723L22.6868 3.56392L22.6824 3.57061L22.6756 3.57507L22.669 3.57953L22.6645 3.58622H22.7762L23.4015 3.4524C23.8184 3.36319 24.2167 3.2554 24.5964 3.12901L25.1994 2.92828L25.2664 2.90598L25.2999 2.89483L25.3222 2.88367L25.3446 2.87252L25.3669 2.86137L25.3892 2.85022L25.4339 2.84353L25.4786 2.83907V2.88367L25.4674 2.88813L25.4562 2.89483L25.4518 2.90152L25.4451 2.90598L25.4384 2.91044L25.4339 2.91713L25.4294 2.92382L25.4227 2.92828L25.416 2.93274L25.4116 2.93943L25.4071 2.94612L25.4004 2.95058L25.3892 2.97289L25.3781 2.99519L25.3714 2.99965C25.3684 3.00411 25.2738 3.13048 25.0877 3.3788C24.9016 3.6286 24.8011 3.75497 24.7862 3.75796C24.7713 3.76242 24.7505 3.78472 24.7237 3.82486C24.6984 3.86648 24.5405 4.03228 24.2502 4.32222C23.9599 4.61216 23.6755 4.87012 23.3971 5.09614C23.1171 5.32363 22.9757 5.60316 22.9727 5.93474C22.9682 6.26482 22.9511 6.63804 22.9213 7.05435C22.8916 7.47068 22.8357 7.92045 22.7538 8.40369C22.6719 8.88693 22.5454 9.43336 22.3741 10.043C22.2029 10.6526 21.9945 11.2473 21.7488 11.8272C21.5031 12.4071 21.2463 12.9275 20.9783 13.3884C20.7103 13.8494 20.4646 14.2397 20.2412 14.5593C20.0179 14.879 19.7909 15.1801 19.5601 15.4626C19.3293 15.7451 19.0375 16.0633 18.6846 16.4172C18.3302 16.7696 18.1367 16.9629 18.1039 16.9971C18.0697 17.0298 17.9238 17.1517 17.6661 17.3628C17.4101 17.5755 17.1346 17.7881 16.8398 18.0007C16.5465 18.2119 16.277 18.388 16.0313 18.5293C15.7856 18.6705 15.4893 18.8319 15.1424 19.0133C14.797 19.1962 14.4233 19.3657 14.0212 19.5218C13.6192 19.6779 13.1949 19.8229 12.7482 19.9567C12.3015 20.0905 11.8697 20.1946 11.4528 20.2689C11.036 20.3433 10.5632 20.4065 10.0346 20.4585L9.24178 20.5366V20.5477H7.79007V20.5366L7.60023 20.5254C7.47369 20.518 7.36945 20.5105 7.28755 20.5031C7.20568 20.4957 6.89671 20.4548 6.3607 20.3805C5.82468 20.3061 5.40407 20.2318 5.09883 20.1574C4.79361 20.0831 4.33947 19.9418 3.73646 19.7337C3.13344 19.5255 2.61752 19.3151 2.18871 19.1025C1.7614 18.8913 1.49339 18.7575 1.38469 18.701C1.27749 18.646 1.15688 18.5776 1.02288 18.4958L0.821875 18.3732L0.81743 18.3665L0.810708 18.362L0.804008 18.3576L0.799541 18.3509L0.777207 18.3397L0.754873 18.3286L0.750429 18.3219L0.743706 18.3174L0.737006 18.313L0.732539 18.3063L0.728095 18.2996L0.721372 18.2951H0.710205V18.2505L0.732539 18.255L0.754873 18.2617L0.855376 18.2728C0.922378 18.2802 1.10478 18.2914 1.40256 18.3063C1.70036 18.3211 2.01674 18.3211 2.35175 18.3063C2.68676 18.2914 3.02923 18.2579 3.37911 18.2059C3.72902 18.1539 4.1422 18.0647 4.61865 17.9383C5.09512 17.8119 5.53287 17.6617 5.93191 17.4877C6.32945 17.3123 6.61233 17.1815 6.7806 17.0952C6.94734 17.0105 7.20195 16.8528 7.5444 16.6224L8.05808 16.2767L8.06254 16.27L8.06924 16.2655L8.07597 16.2611L8.08041 16.2544L8.08488 16.2477L8.09158 16.2432L8.0983 16.2388L8.10274 16.2321L8.12508 16.2254L8.14741 16.2209L8.15188 16.1986L8.15858 16.1763L8.1653 16.1719L8.16975 16.1652L7.99107 16.154C7.87197 16.1466 7.75657 16.1391 7.6449 16.1317C7.53323 16.1243 7.35829 16.0908 7.12005 16.0313C6.88184 15.9719 6.625 15.8827 6.34953 15.7637C6.07408 15.6448 5.80608 15.5035 5.54551 15.34C5.28496 15.1764 5.09659 15.0403 4.98046 14.9318C4.86582 14.8247 4.71692 14.6731 4.53378 14.4768C4.35214 14.2791 4.1943 14.0761 4.0603 13.8679C3.92629 13.6598 3.79825 13.4196 3.67618 13.1476L3.49078 12.7416L3.47962 12.7082L3.46845 12.6747L3.46175 12.6524L3.45728 12.6301L3.49078 12.6346L3.52428 12.6413L3.76996 12.6747C3.93375 12.697 4.19059 12.7045 4.54048 12.697C4.89038 12.6896 5.13233 12.6747 5.26633 12.6524C5.40034 12.6301 5.48223 12.6152 5.51201 12.6078L5.55667 12.5967L5.61251 12.5855L5.66834 12.5744L5.67281 12.5677L5.67951 12.5632L5.68623 12.5588L5.69068 12.5521L5.64601 12.5409L5.60134 12.5298L5.55667 12.5186L5.51201 12.5075L5.46734 12.4963C5.43757 12.4889 5.38546 12.474 5.311 12.4517C5.23656 12.4294 5.03556 12.3476 4.70798 12.2064C4.38043 12.0651 4.11986 11.9276 3.92629 11.7938C3.73225 11.6596 3.54722 11.5128 3.37241 11.3544C3.19821 11.1938 3.0069 10.9871 2.79843 10.7344C2.58999 10.4816 2.40388 10.1879 2.24008 9.85339C2.07631 9.51884 1.95347 9.19917 1.87157 8.89436C1.79 8.59133 1.73619 8.28153 1.71079 7.96878L1.67057 7.50041L1.6929 7.50488L1.71523 7.51157L1.73757 7.52272L1.7599 7.53387L1.78223 7.54502L1.80457 7.55617L2.15075 7.71229C2.38154 7.81638 2.66816 7.90559 3.0106 7.97993C3.35307 8.05427 3.55778 8.09517 3.62479 8.1026L3.72529 8.11375H3.92629L3.92185 8.10706L3.91513 8.1026L3.90843 8.09814L3.90396 8.09145L3.89952 8.08476L3.89279 8.08029L3.88609 8.07583L3.88163 8.06914L3.85929 8.05799L3.83696 8.04684L3.83251 8.04015L3.82579 8.03569L3.81909 8.03123L3.81462 8.02454L3.79229 8.01339L3.76996 8.00223L3.76551 7.99554C3.76105 7.99255 3.69701 7.94498 3.57342 7.8528C3.45132 7.75913 3.32328 7.63796 3.18927 7.48926C3.05527 7.34057 2.92127 7.18445 2.78726 7.0209C2.65301 6.85697 2.53344 6.68159 2.42992 6.49678C2.32571 6.31092 2.21551 6.07449 2.09938 5.78754C1.98474 5.50206 1.89763 5.21435 1.83807 4.92441C1.77853 4.63447 1.74503 4.34825 1.73757 4.06574C1.73013 3.78322 1.73757 3.54162 1.7599 3.34089C1.78223 3.14016 1.8269 2.9134 1.8939 2.66064C1.96091 2.40788 2.0577 2.14024 2.18425 1.85773L2.37408 1.43397L2.38525 1.40052L2.39642 1.36706L2.40314 1.3626L2.40759 1.35591L2.41205 1.34922L2.41875 1.34476L2.42548 1.34922L2.42992 1.35591L2.43439 1.3626L2.44109 1.36706L2.44781 1.37152L2.45225 1.37822L2.45672 1.38491L2.46342 1.38937L2.47459 1.41167L2.48575 1.43397L2.49248 1.43843L2.49692 1.44512L2.79843 1.77967C2.99944 2.0027 3.23767 2.25176 3.51312 2.52682C3.78858 2.80189 3.94119 2.94463 3.97096 2.95504C4.00076 2.96693 4.03796 3.00112 4.08263 3.05764C4.1273 3.11266 4.2762 3.24425 4.52931 3.4524C4.78244 3.66056 5.11372 3.90219 5.52317 4.17725C5.93264 4.45232 6.38676 4.72368 6.88554 4.99132C7.38435 5.25895 7.92037 5.50056 8.49359 5.71617C9.06683 5.93177 9.46885 6.07302 9.69962 6.13993C9.93042 6.20683 10.325 6.29232 10.8833 6.39641C11.4417 6.5005 11.8623 6.56741 12.1452 6.59714C12.4281 6.62687 12.6217 6.64398 12.7259 6.64844L12.8822 6.6529L12.8778 6.61944L12.871 6.58599L12.8264 6.3072C12.7966 6.12135 12.7817 5.86114 12.7817 5.52659C12.7817 5.19204 12.8078 4.88353 12.8599 4.60101C12.912 4.3185 12.9902 4.03228 13.0944 3.74234C13.1986 3.4524 13.3006 3.21969 13.4004 3.04426C13.5016 2.87029 13.6341 2.67179 13.7979 2.44876C13.9617 2.22573 14.1739 1.99527 14.4344 1.75737C14.695 1.51946 14.9928 1.30758 15.3278 1.12173C15.6628 0.935878 15.9718 0.79461 16.2546 0.697971C16.5375 0.601331 16.7758 0.538124 16.9693 0.508394C17.1629 0.478664 17.2597 0.461558 17.2597 0.457097Z" fill="white"/>
</svg>
