<svg width="15" height="11" viewBox="0 0 15 11" fill="none" xmlns="http://www.w3.org/2000/svg">
<path d="M9.91882 0.0224371V0.0200195H10.5482L10.7782 0.0659527C10.9316 0.0957729 11.0708 0.134852 11.1958 0.183203C11.3209 0.231554 11.442 0.287967 11.559 0.35243C11.676 0.416894 11.7821 0.482578 11.8773 0.549459C11.9717 0.615543 12.0565 0.685651 12.1315 0.759785C12.2057 0.834728 12.3215 0.854069 12.4789 0.817806C12.6363 0.781543 12.8057 0.731173 12.9873 0.66671C13.1688 0.602246 13.3484 0.52972 13.5259 0.449132C13.7035 0.368543 13.8116 0.317376 13.8503 0.295618C13.8883 0.273063 13.9084 0.260975 13.9109 0.259355L13.9133 0.255729L13.9254 0.249685L13.9375 0.243641L13.9496 0.237598L13.9617 0.231554L13.9641 0.227927L13.9677 0.22551L13.9714 0.223092L13.9738 0.219466L13.9859 0.21584L13.998 0.213422L13.9956 0.231554L13.9919 0.249685L13.9859 0.267817L13.9798 0.285948L13.9738 0.298036L13.9677 0.310124L13.9617 0.328255C13.9577 0.340343 13.9536 0.356456 13.9496 0.376606C13.9455 0.396756 13.9072 0.477332 13.8346 0.618359C13.762 0.759386 13.6712 0.902419 13.5622 1.04747C13.4533 1.19252 13.3557 1.30211 13.2693 1.37626C13.1822 1.4512 13.1245 1.50358 13.0962 1.5334C13.068 1.56401 13.0337 1.59221 12.9933 1.61801L12.9328 1.6579L12.9207 1.66394L12.9086 1.66999L12.9062 1.67361L12.9026 1.67603L12.8989 1.67845L12.8965 1.68207L12.8844 1.68812L12.8723 1.69416L12.8699 1.69779L12.8662 1.70021L12.8626 1.70262L12.8602 1.70625L12.8578 1.70988L12.8541 1.71229L12.8505 1.71471L12.8481 1.71834H12.9086L13.2475 1.64581C13.4735 1.59746 13.6893 1.53904 13.8951 1.47054L14.2219 1.36175L14.2582 1.34966L14.2764 1.34362L14.2885 1.33758L14.3006 1.33153L14.3127 1.32549L14.3248 1.31944L14.349 1.31582L14.3732 1.3134V1.33758L14.3672 1.33999L14.3611 1.34362L14.3587 1.34725L14.3551 1.34966L14.3514 1.35208L14.349 1.35571L14.3466 1.35933L14.343 1.36175L14.3393 1.36417L14.3369 1.36779L14.3345 1.37142L14.3309 1.37384L14.3248 1.38593L14.3188 1.39801L14.3151 1.40043C14.3135 1.40285 14.2623 1.47134 14.1614 1.60592C14.0605 1.7413 14.0061 1.80979 13.998 1.81141C13.9899 1.81383 13.9786 1.82592 13.9641 1.84767C13.9504 1.87023 13.8649 1.96009 13.7075 2.11723C13.5501 2.27437 13.396 2.41418 13.2451 2.53667C13.0934 2.65997 13.0167 2.81146 13.0151 2.99117C13.0127 3.17007 13.0034 3.37234 12.9873 3.59797C12.9711 3.82361 12.9409 4.06737 12.8965 4.32927C12.8521 4.59118 12.7835 4.88732 12.6907 5.21772C12.5979 5.54811 12.4849 5.87045 12.3518 6.18473C12.2187 6.49901 12.0795 6.78105 11.9342 7.03087C11.7889 7.28068 11.6558 7.49222 11.5348 7.66547C11.4137 7.83872 11.2907 8.0019 11.1656 8.15502C11.0405 8.30813 10.8823 8.48059 10.6911 8.67237C10.499 8.86336 10.3941 8.96812 10.3764 8.98665C10.3578 9.00438 10.2787 9.07047 10.1391 9.18489C10.0003 9.30012 9.85103 9.41535 9.69126 9.5306C9.53229 9.64503 9.38622 9.74052 9.25308 9.81707C9.11993 9.89362 8.95935 9.98105 8.77132 10.0794C8.58412 10.1785 8.38156 10.2704 8.16368 10.355C7.9458 10.4396 7.71582 10.5182 7.47373 10.5907C7.23164 10.6632 6.99763 10.7196 6.77168 10.7599C6.54574 10.8002 6.28952 10.8345 6.00305 10.8627L5.57334 10.905V10.911H4.78656V10.905L4.68367 10.8989C4.61508 10.8949 4.55859 10.8909 4.51421 10.8868C4.46983 10.8828 4.30238 10.8606 4.01187 10.8203C3.72137 10.7801 3.49341 10.7398 3.32798 10.6995C3.16256 10.6592 2.91643 10.5826 2.58961 10.4698C2.26279 10.357 1.98318 10.243 1.75077 10.1277C1.51918 10.0133 1.37393 9.94077 1.31502 9.91015C1.25691 9.88033 1.19155 9.84327 1.11892 9.79894L1.00998 9.73246L1.00758 9.72883L1.00393 9.72642L1.0003 9.724L0.99788 9.72037L0.985776 9.71433L0.973672 9.70828L0.971263 9.70466L0.967619 9.70224L0.963988 9.69982L0.961567 9.6962L0.959159 9.69257L0.955515 9.69015H0.949463V9.66598L0.961567 9.6684L0.973672 9.67202L1.02814 9.67807C1.06445 9.68209 1.16331 9.68813 1.3247 9.6962C1.4861 9.70426 1.65757 9.70426 1.83914 9.6962C2.0207 9.68813 2.20631 9.67 2.39594 9.6418C2.58558 9.6136 2.80951 9.56525 3.06773 9.49675C3.32597 9.42825 3.56321 9.34686 3.77948 9.25258C3.99494 9.1575 4.14825 9.08658 4.23945 9.03984C4.32982 8.9939 4.46781 8.90848 4.65341 8.78358L4.93181 8.59622L4.93423 8.59259L4.93786 8.59017L4.9415 8.58776L4.94391 8.58413L4.94633 8.58051L4.94997 8.57809L4.95361 8.57567L4.95602 8.57204L4.96812 8.56842L4.98023 8.566L4.98265 8.55391L4.98628 8.54182L4.98992 8.53941L4.99233 8.53578L4.89549 8.52974C4.83094 8.52571 4.7684 8.52167 4.70788 8.51765C4.64735 8.51362 4.55254 8.49549 4.42342 8.46325C4.29432 8.43102 4.15512 8.38267 4.00582 8.3182C3.85654 8.25374 3.71129 8.17718 3.57006 8.08854C3.42885 7.9999 3.32677 7.92615 3.26382 7.86733C3.20169 7.8093 3.12099 7.72712 3.02173 7.62074C2.92329 7.51357 2.83775 7.40356 2.76512 7.29075C2.6925 7.17794 2.6231 7.04778 2.55694 6.90032L2.45646 6.68032L2.45041 6.66219L2.44436 6.64406L2.44072 6.63197L2.4383 6.61989L2.45646 6.6223L2.47462 6.62593L2.60776 6.64406C2.69654 6.65615 2.83574 6.66017 3.02537 6.65615C3.21501 6.65212 3.34613 6.64406 3.41876 6.63197C3.49139 6.61989 3.53577 6.61182 3.55191 6.6078L3.57612 6.60175L3.60638 6.59571L3.63664 6.58967L3.63906 6.58604L3.64269 6.58362L3.64633 6.5812L3.64874 6.57758L3.62453 6.57153L3.60032 6.56549L3.57612 6.55945L3.55191 6.5534L3.5277 6.54736C3.51156 6.54333 3.48332 6.53527 3.44297 6.52318C3.40262 6.5111 3.29368 6.46677 3.11615 6.39022C2.93863 6.31367 2.7974 6.23912 2.6925 6.1666C2.58733 6.09386 2.48705 6.01432 2.39231 5.92847C2.29789 5.84144 2.19421 5.72942 2.08122 5.59243C1.96825 5.45544 1.86739 5.29629 1.77861 5.11497C1.68985 4.93366 1.62328 4.7604 1.57889 4.5952C1.53468 4.43097 1.50552 4.26307 1.49175 4.09356L1.46995 3.83972L1.48206 3.84214L1.49416 3.84577L1.50626 3.85181L1.51837 3.85785L1.53047 3.8639L1.54258 3.86994L1.7302 3.95456C1.85528 4.01097 2.01062 4.05932 2.19622 4.09961C2.38182 4.13989 2.49277 4.16206 2.52909 4.16609L2.58356 4.17213H2.6925L2.69009 4.16851L2.68644 4.16609L2.68281 4.16367L2.68039 4.16005L2.67798 4.15642L2.67434 4.154L2.67071 4.15158L2.66829 4.14796L2.65618 4.14191L2.64408 4.13587L2.64167 4.13224L2.63803 4.12983L2.63439 4.12741L2.63197 4.12378L2.61987 4.11774L2.60776 4.11169L2.60536 4.10807C2.60293 4.10645 2.56823 4.08067 2.50125 4.03071C2.43507 3.97994 2.36568 3.91427 2.29305 3.83368C2.22042 3.75309 2.1478 3.66848 2.07517 3.57984C2.00241 3.491 1.93761 3.39594 1.8815 3.29578C1.82502 3.19505 1.7653 3.06691 1.70236 2.91139C1.64022 2.75667 1.59302 2.60074 1.56073 2.4436C1.52846 2.28646 1.51031 2.13134 1.50626 1.97822C1.50223 1.82511 1.50626 1.69416 1.51837 1.58537C1.53047 1.47658 1.55468 1.35369 1.591 1.2167C1.62731 1.07971 1.67977 0.934657 1.74835 0.781543L1.85124 0.551877L1.85729 0.533745L1.86334 0.515614L1.86699 0.513196L1.8694 0.50957L1.87182 0.505944L1.87545 0.503526L1.87909 0.505944L1.8815 0.50957L1.88392 0.513196L1.88755 0.515614L1.8912 0.518031L1.89361 0.521658L1.89603 0.525284L1.89966 0.527701L1.90571 0.539789L1.91176 0.551877L1.91541 0.554294L1.91781 0.557921L2.08122 0.739236C2.19016 0.860112 2.31928 0.995095 2.46856 1.14417C2.61786 1.29325 2.70057 1.37061 2.7167 1.37626C2.73285 1.3827 2.75302 1.40123 2.77723 1.43186C2.80143 1.46168 2.88214 1.533 3.01931 1.64581C3.15651 1.75862 3.33605 1.88958 3.55796 2.03866C3.77988 2.18774 4.026 2.33481 4.29633 2.47986C4.56667 2.62491 4.85717 2.75586 5.16784 2.87271C5.47853 2.98956 5.69641 3.06611 5.82148 3.10237C5.94657 3.13864 6.1604 3.18497 6.46301 3.24138C6.76562 3.2978 6.9936 3.33406 7.14691 3.35017C7.30024 3.36628 7.40515 3.37556 7.46163 3.37797L7.54636 3.38039L7.54395 3.36226L7.5403 3.34413L7.5161 3.19303C7.49996 3.09231 7.49189 2.95128 7.49189 2.76996C7.49189 2.58865 7.50601 2.42144 7.53425 2.26833C7.5625 2.11521 7.60487 1.96009 7.66135 1.80295C7.71784 1.64581 7.77312 1.51969 7.82718 1.42461C7.88206 1.33032 7.95388 1.22274 8.04264 1.10187C8.13141 0.980989 8.2464 0.856087 8.38761 0.727148C8.52883 0.598209 8.69022 0.483376 8.87179 0.38265C9.05335 0.281923 9.22081 0.20536 9.37412 0.152984C9.52745 0.100608 9.65656 0.0663516 9.76146 0.0502387C9.86637 0.0341258 9.91882 0.0248546 9.91882 0.0224371Z" fill="white"/>
</svg>
