<svg width="14" height="13" viewBox="0 0 14 13" fill="none" xmlns="http://www.w3.org/2000/svg">
<path d="M0.685547 1.64227C0.685547 1.21918 0.834133 0.870128 1.13129 0.595129C1.42845 0.320117 1.81477 0.182617 2.29023 0.182617C2.7572 0.182617 3.13501 0.317997 3.42369 0.588783C3.72085 0.868021 3.86943 1.23187 3.86943 1.68035C3.86943 2.08652 3.7251 2.42498 3.43643 2.69577C3.13927 2.975 2.74871 3.11462 2.26476 3.11462H2.25202C1.78505 3.11462 1.40723 2.975 1.11856 2.69577C0.829879 2.41653 0.685547 2.06536 0.685547 1.64227ZM0.851109 12.7484V4.26966H3.6784V12.7484H0.851109ZM5.24487 12.7484H8.07217V8.01399C8.07217 7.71782 8.10613 7.48935 8.17405 7.32859C8.29291 7.04088 8.47334 6.7976 8.71531 6.59876C8.95729 6.3999 9.26081 6.30048 9.6259 6.30048C10.5768 6.30048 11.0523 6.93934 11.0523 8.21708V12.7484H13.8796V7.88707C13.8796 6.63472 13.5824 5.68489 12.9881 5.03756C12.3938 4.39024 11.6084 4.06657 10.632 4.06657C9.53675 4.06657 8.68347 4.5362 8.07217 5.47546V5.50084H8.05943L8.07217 5.47546V4.26966H5.24487C5.26185 4.54043 5.27034 5.38237 5.27034 6.7955C5.27034 8.20861 5.26185 10.1929 5.24487 12.7484Z" fill="white"/>
</svg>
