<svg width="23" height="24" viewBox="0 0 23 24" fill="none" xmlns="http://www.w3.org/2000/svg">
<circle cx="11.4907" cy="12.335" r="11.4907" fill="#075FE4"/>
<path d="M16.0609 10.7416C16.0609 10.7416 14.8518 14.539 14.7533 14.8525C14.7175 14.53 13.8308 7.71436 13.8308 7.71436C11.7709 7.71436 10.6693 9.18318 10.0871 10.7326C10.0871 10.7326 8.61831 14.539 8.49293 14.8614C8.48397 14.5659 8.26902 10.7774 8.26902 10.7774C8.14363 8.87866 6.40613 7.72331 5 7.72331L6.70168 18.0498C8.86013 18.0409 10.0244 16.581 10.6335 15.0316C10.6335 15.0316 11.9321 11.673 11.9859 11.5207C11.9948 11.664 12.9173 18.0498 12.9173 18.0498C15.0847 18.0498 16.249 16.6795 16.876 15.1838L19.9121 7.72331C17.7716 7.72331 16.6431 9.18318 16.0609 10.7416Z" fill="white"/>
</svg>
