<svg width="51" height="12" viewBox="0 0 51 12" fill="none" xmlns="http://www.w3.org/2000/svg">
<path d="M8.44149 11.9158L5.12474 11.8555C4.05082 11.8346 2.97426 11.8765 1.92145 11.6589C0.319808 11.3337 0.206347 9.73938 0.0876087 8.40203C-0.075986 6.52188 -0.012659 4.60764 0.29606 2.74322C0.470209 1.69694 1.15625 1.07284 2.21698 1.00466C5.79759 0.758172 9.40195 0.787017 12.9746 0.902396C13.352 0.912885 13.7319 0.970575 14.104 1.03613C15.9405 1.35605 15.9853 3.16278 16.1041 4.68368C16.2228 6.22032 16.1727 7.76483 15.9457 9.29097C15.7637 10.5549 15.4154 11.6143 13.9457 11.7166C12.1039 11.8503 10.3044 11.9578 8.45732 11.9237C8.45732 11.9158 8.44677 11.9158 8.44149 11.9158ZM6.49155 8.7167C7.87947 7.92478 9.241 7.14597 10.621 6.3593C9.23044 5.56738 7.87155 4.78857 6.49155 4.0019V8.7167Z" fill="white"/>
<path d="M42.8785 10.4793C42.8152 10.7363 42.7598 10.9382 42.7044 11.1532H41.4062V1.20166H42.9208V4.87285C42.9999 4.7732 43.0395 4.73125 43.0738 4.68667C43.3324 4.33266 43.6675 4.1019 44.1002 4.01274C44.7889 3.879 45.3773 4.18057 45.5858 4.83876C45.7203 5.24783 45.8074 5.68575 45.818 6.11318C45.8391 7.21192 45.8232 8.30803 45.7837 9.40676C45.7678 9.74242 45.6649 10.0859 45.5356 10.4006C45.1108 11.439 43.7229 11.5964 43.0342 10.6969C42.992 10.6419 42.9524 10.5815 42.8785 10.4793ZM42.9524 7.74162V9.56148C42.9524 9.8578 43.1107 10.0387 43.4089 10.1069C43.7018 10.1751 43.9393 10.0623 44.058 9.79224C44.1081 9.67948 44.1583 9.56148 44.1609 9.44348C44.1899 8.33163 44.2163 7.21979 44.2242 6.10532C44.2242 5.89816 44.1741 5.68313 44.1108 5.48122C43.992 5.11672 43.6648 5.00921 43.3429 5.22161C43.1002 5.38419 42.9524 5.61495 42.9524 5.92176V7.74162ZM38.8362 4.15434H40.422V11.1584H39.1845C39.1396 10.8936 39.0947 10.6209 39.042 10.301C38.9575 10.4242 38.9074 10.5029 38.8546 10.5815C38.443 11.1716 37.8599 11.3735 37.1712 11.266C36.5828 11.1716 36.2292 10.7205 36.15 9.98104C36.1263 9.76077 36.1157 9.53788 36.1157 9.31761C36.1105 7.67868 36.1157 6.03452 36.1157 4.39559V4.1491H37.72V4.43493C37.72 6.01878 37.7148 7.60002 37.7253 9.18387C37.7253 9.40939 37.7491 9.64277 37.7886 9.86829C37.8335 10.099 38.0024 10.183 38.2293 10.1672C38.596 10.1384 38.8494 9.86829 38.8494 9.50641V4.46377C38.8362 4.3615 38.8362 4.2671 38.8362 4.15434ZM27.9175 4.1491H29.5113V4.44542C29.5113 6.02141 29.506 7.59477 29.5166 9.16551C29.5166 9.39103 29.5377 9.62441 29.5852 9.84468C29.6458 10.1043 29.7989 10.1882 30.0601 10.1541C30.4216 10.1043 30.6406 9.85517 30.6432 9.49068V4.47426V4.15959H32.2291V11.1584H30.9968C30.952 10.8988 30.9071 10.6314 30.8491 10.2931C30.7699 10.4111 30.725 10.4793 30.6802 10.5501C30.2686 11.1506 29.6907 11.3708 28.9862 11.2633C28.4215 11.1794 28.0759 10.7651 27.9703 10.0859C27.9413 9.87353 27.9202 9.66375 27.9202 9.45134C27.9149 7.74949 27.9149 6.03976 27.9149 4.3379L27.9175 4.1491ZM27.0996 7.88847C27.0943 8.12447 27.0785 8.36048 27.0653 8.59648C27.0046 9.3045 26.9756 10.3088 26.4003 10.8254C26.0336 11.1506 25.5692 11.2686 25.0889 11.2843C24.8752 11.2896 24.6589 11.2896 24.4451 11.2607C23.4345 11.1086 22.9649 10.6655 22.796 9.56148C22.6034 8.28705 22.5875 6.99165 22.8171 5.71722C23.0546 4.39822 23.8725 3.93145 25.1444 4.01799C26.3317 4.1019 26.8621 4.87547 27.0019 5.97683C27.0785 6.6088 27.1154 7.24863 27.0996 7.88847ZM25.4847 7.64722C25.4847 7.19881 25.4953 6.74778 25.4795 6.29937C25.4689 6.03976 25.4346 5.77753 25.3792 5.52055C25.3159 5.22423 25.1259 5.08263 24.8884 5.08787C24.6562 5.09312 24.4926 5.23472 24.4082 5.51006C24.3792 5.61233 24.3475 5.71722 24.3475 5.81949C24.3475 6.52226 24.3422 7.22765 24.3369 7.93042C24.3317 8.58599 24.2472 9.27303 24.4557 9.89975C24.519 10.0912 24.6826 10.1961 24.8963 10.1961C25.1048 10.1961 25.242 10.0938 25.3185 9.91024C25.3792 9.76864 25.432 9.61392 25.432 9.46183C25.4504 8.85871 25.4847 8.25296 25.4847 7.64722ZM20.4687 6.32821C20.6086 5.64904 20.7405 4.98561 20.8856 4.31955C21.0677 3.47255 21.2709 2.62556 21.4503 1.77594C21.4951 1.56878 21.5796 1.51896 21.7775 1.5242C22.2023 1.53993 22.635 1.52944 23.0889 1.52944C22.9411 2.06963 22.796 2.5836 22.6535 3.0897C22.2023 4.6788 21.7511 6.27314 21.3052 7.86749C21.2709 7.99074 21.255 8.12447 21.255 8.25559C21.2498 9.12618 21.255 9.99415 21.255 10.8648V11.148H19.7062C19.7009 11.0693 19.6903 10.9906 19.6903 10.912C19.6903 10.419 19.6507 9.92335 19.6956 9.43561C19.8091 8.26345 19.4344 7.1857 19.1309 6.09483C18.7299 4.65258 18.3235 3.20508 17.9224 1.76283C17.9013 1.69465 17.8934 1.62122 17.8723 1.53731H19.4528C19.7853 3.12903 20.1204 4.72076 20.4687 6.32821ZM50.7733 8.15594H48.103C48.132 8.68826 48.1426 9.19436 48.198 9.69522C48.2376 10.044 48.4302 10.1934 48.7336 10.1961C49.0503 10.2013 49.235 10.044 49.3089 9.69784C49.3326 9.58508 49.3484 9.47232 49.359 9.35694C49.3695 9.25467 49.3748 9.14454 49.3827 8.99769C49.8339 9.02129 50.2746 9.04751 50.71 9.06587C50.9633 9.81322 50.5068 10.773 49.739 11.0693C49.1347 11.3053 48.5146 11.3053 47.8972 11.1244C47.4407 10.9906 47.1003 10.7022 46.9473 10.259C46.8048 9.84468 46.6702 9.41201 46.6412 8.97933C46.562 7.91207 46.533 6.83431 46.6966 5.76442C46.7256 5.58611 46.7758 5.41566 46.8312 5.24259C47.0528 4.52933 47.5357 4.09141 48.2824 4.01799C48.6888 3.97865 49.1083 3.99439 49.5094 4.06256C50.1585 4.17532 50.5042 4.63947 50.6545 5.24783C50.7232 5.53366 50.7733 5.82736 50.7838 6.11843C50.7865 6.78711 50.7733 7.45055 50.7733 8.15594ZM49.2561 7.23552C49.2561 6.70844 49.2614 6.21283 49.2508 5.7146C49.2508 5.5966 49.2059 5.47335 49.1611 5.36059C49.0714 5.14032 48.884 5.08001 48.6598 5.08001C48.4355 5.08001 48.293 5.19277 48.2376 5.39468C48.0687 6.00043 48.1241 6.61928 48.1294 7.24076C48.5331 7.23552 48.8999 7.23552 49.2561 7.23552Z" fill="white"/>
<path d="M33.4528 2.81521H31.8828V1.55127H36.569V2.80734H35.0096V11.1488H33.4554L33.4528 2.81521Z" fill="white"/>
</svg>
