<svg width="26" height="19" viewBox="0 0 26 19" fill="none" xmlns="http://www.w3.org/2000/svg">
<path d="M13.5992 18.4183L8.40878 18.3213C6.72822 18.2874 5.04349 18.3549 3.39588 18.0047C0.889496 17.4815 0.711935 14.9159 0.526136 12.7638C0.270123 9.73833 0.369233 6.65791 0.852362 3.65766C1.1251 1.97421 2.19845 0.969677 3.85835 0.860365C9.46173 0.463656 15.1024 0.510671 20.6933 0.695749C21.2838 0.712716 21.8783 0.80545 22.4606 0.911006C25.3346 1.42583 25.4047 4.33322 25.591 6.78069C25.7768 9.25342 25.6984 11.7388 25.3432 14.1947C25.0583 16.2281 24.5132 17.9333 22.2128 18.098C19.3305 18.3132 16.5144 18.4865 13.624 18.4313C13.6241 18.4183 13.6075 18.4183 13.5992 18.4183ZM10.5478 13.2702C12.7198 11.9958 14.8504 10.7426 17.01 9.4767C14.8339 8.20226 12.7074 6.94906 10.5478 5.68317V13.2702Z" fill="white"/>
</svg>
